<?xml version="1.0" encoding="utf-8"?>
<!-- Generator: Adobe Illustrator 17.1.0, SVG Export Plug-In . SVG Version: 6.00 Build 0)  -->
<!DOCTYPE svg PUBLIC "-//W3C//DTD SVG 1.1//EN" "http://www.w3.org/Graphics/SVG/1.1/DTD/svg11.dtd">
<svg version="1.1" id="Layer_1" xmlns="http://www.w3.org/2000/svg" xmlns:xlink="http://www.w3.org/1999/xlink" x="0px" y="0px"
	 viewBox="0 0 612 792" enable-background="new 0 0 612 792" xml:space="preserve">
<path fill="none" stroke="#000000" stroke-miterlimit="10" d="M42.8,54.2c22,19.3,93.2,87.6,147.2,107.5
	c46.7,17.2,100.7,14.6,115.8-10.2s12.9-65.6-25.6-70.6c-47.7-6.2-82.2,46.5-37.7,69.8s66.8-9.6,64.1-40
	c-2.7-30.5-29.1-56.6-81.3-15.5s12.8,89.8,42.7,77.1c29.9-12.7,71.8-82,16.4-112.4s-119.9,111.5-11.8,96.3S282.8,50,238.3,74.8
	c-61.1,34.1-3.7,110.1,44.6,113.1c39.6,2.5,148.2-76,189-29c41.5,47.8,39.6,191.1,71,196.2"/>
</svg>
