<?xml version="1.0" encoding="utf-8"?>
<!-- Generator: Adobe Illustrator 18.0.0, SVG Export Plug-In . SVG Version: 6.00 Build 0)  -->
<!DOCTYPE svg PUBLIC "-//W3C//DTD SVG 1.1//EN" "http://www.w3.org/Graphics/SVG/1.1/DTD/svg11.dtd">
<svg version="1.1" xmlns="http://www.w3.org/2000/svg" xmlns:xlink="http://www.w3.org/1999/xlink" x="0px" y="0px"
	 viewBox="0 0 1920 1080" enable-background="new 0 0 1920 1080" xml:space="preserve">
<g id="Layer_1" display="none">
	
		<text transform="matrix(1 0 0 1 56.9967 597.7925)" display="inline" opacity="0.2" font-family="'Sacramento-Regular'" font-size="270.1659">Marie-Francine</text>
</g>
<g id="guides">
</g>
<g id="M">
	<path id="joinb" fill="none" stroke="#000000" stroke-width="10" stroke-linecap="round" stroke-miterlimit="10" d="M157.3,218
		c-47.6-35-86.6-3.7-87.7,29.7c-0.8,22.5,15.7,45.9,58.4,50.3c106.6,11.1,144.2-174.2,127.7-188c-18.5-15.4,20.4,138.7,27.3,177
		c0.4,2.5,4.1,2.5,5.2,0.3c28.3-58.6,56.3-148.1,99.5-186.6c4-3.6-70.6,188,8.5,188.3"/>
</g>
<g id="a">
	<path id="joinab_5_" fill="none" stroke="#000000" stroke-width="10" stroke-linecap="round" stroke-miterlimit="10" d="M396.7,289
		c30.7,0,15-70.8,73.4-50.2c0.5,0.2,0.2,1-0.2,0.8c-46.4-20.2-55.8,36.6-41.7,46.4c16.9,11.8,37.8-13.9,38.2-26.2
		c0.6-18.9-16.5,29.2,21.2,29.2"/>
</g>
<g id="r">
	<path id="joinab_4_" fill="none" stroke="#000000" stroke-width="10" stroke-linecap="round" stroke-miterlimit="10" d="M487.8,289
		c5,0,39.5-3,35.2-71c-0.8-12-19,14.5-15.2,19.2c6.2,7.8,32.6-2.8,38.5,5.5c7.4,10.4-21.2,46.5,18.2,46.5"/>
</g>
<g id="i">
	<path id="joinab_3_" fill="none" stroke="#000000" stroke-width="10" stroke-linecap="round" stroke-miterlimit="10" d="
		M565.7,289.3c32.7,0,47.3-57.3,38.7-57.3c-1.6,0-14.3,58.7,16.3,57.3"/>
	<path fill="none" stroke="#000000" stroke-width="10" stroke-linecap="round" stroke-miterlimit="10" d="M595.7,181.3
		c0.3,0.3,26.7,8.3,13.1,20.3c-6.4,5.6-19.9-11.4-4.8-16.8"/>
</g>
<g id="e">
	<path id="joinab_2_" fill="none" stroke="#000000" stroke-width="10" stroke-linecap="round" stroke-miterlimit="10" d="M623,289.3
		c22,0,77.8-30,61.3-48.3c-14.6-16.2-39.7,19.7-28.4,38.1c4.2,6.8,13.8,10.2,45.1,9.9"/>
</g>
<g id="_x2D_">
	<path fill="none" stroke="#000000" stroke-width="10" stroke-linecap="round" stroke-miterlimit="10" d="M753.1,256.7
		c0,0,60.5-6,45.2-4.5"/>
</g>
<g id="F">
	<path fill="none" stroke="#000000" stroke-width="10" stroke-linecap="round" stroke-miterlimit="10" d="M838.5,194.5
		c-39-26.5-10.5-85.4,54.5-76.4s251.5,67.2,246.5,4.9c-2.5-31-92-28-91.5,76c0.3,63.8-16.4,90-93,90c-57.1,0-77.3-26.6-80.5-44.5"/>
	<path fill="none" stroke="#000000" stroke-width="10" stroke-linecap="round" stroke-miterlimit="10" d="M977,212
		c0,0,69.5-10.5,129-4.5"/>
	<path id="end" fill="none" stroke="#000000" stroke-width="10" stroke-linecap="round" stroke-miterlimit="10" d="M1083.7,289.7"/>
</g>
<g id="n">
	<path id="joinab_1_" fill="none" stroke="#000000" stroke-width="10" stroke-linecap="round" stroke-miterlimit="10" d="
		M1260.5,289c29.2,0,43.5-55.1,50.5-53.8c7,1.3,2.5,54.9,5.5,54.3c3-0.5,32-55,43-48.5s-5.5,48,19.5,48"/>
</g>
<g id="c">
	<path id="joinab" fill="none" stroke="#000000" stroke-width="10" stroke-linecap="round" stroke-miterlimit="10" d="M1380.7,289
		c11.3,0,21.5-9.7,31.2-36.9c9-25.1,53.3-29.2,37.9,0.2c-4.8,9.2,17.2-26.6-17.5-18.2c-16.5,4-15.6,37.9-6.1,46.8
		c8.6,8.1,19.9,8.1,31,8.1"/>
</g>
</svg>
