<?xml version="1.0" encoding="utf-8"?>
<!-- Generator: Adobe Illustrator 18.0.0, SVG Export Plug-In . SVG Version: 6.00 Build 0)  -->
<!DOCTYPE svg PUBLIC "-//W3C//DTD SVG 1.1//EN" "http://www.w3.org/Graphics/SVG/1.1/DTD/svg11.dtd">
<svg version="1.1" xmlns="http://www.w3.org/2000/svg" xmlns:xlink="http://www.w3.org/1999/xlink" x="0px" y="0px"
	 viewBox="0 0 10000 1000" enable-background="new 0 0 10000 1000" xml:space="preserve">
<g id="guides">
</g>
<g id="Ö">
	<path fill="none" stroke="#000000" stroke-width="10" stroke-linecap="round" stroke-miterlimit="10" d="M9277.4,245.7
		c0,0,3.8,1.2,1.8,2.9c-0.9,0.8-2.8-1.6-0.7-2.4"/>
	<path fill="none" stroke="#000000" stroke-width="10" stroke-linecap="round" stroke-miterlimit="10" d="M9293.2,245.7
		c0,0,3.8,1.2,1.8,2.9c-0.9,0.8-2.8-1.6-0.7-2.4"/>
	<path fill="none" stroke="#000000" stroke-width="10" stroke-linecap="round" stroke-linejoin="round" stroke-miterlimit="10" d="
		M9270.1,271c0,0-29.8,10.3-29.8,49.4c0,34.3,32.2,42.6,46,42.6c15.6,0,46.5-6,48.3-52.7c1.8-47.1-40.7-55.1-54.7-36.6
		c-14,18.5,10.3,65,67.3,28.5"/>
</g>
<g id="Ô">
	<path fill="none" stroke="#000000" stroke-width="10" stroke-linecap="round" stroke-linejoin="round" stroke-miterlimit="10" d="
		M9139.1,271c0,0-29.8,10.3-29.8,49.4c0,34.3,32.2,42.6,46,42.6c15.6,0,46.5-6,48.3-52.7c1.8-47.1-40.7-55.1-54.7-36.6
		c-14,18.5,10.3,65,67.3,28.5"/>
	
		<polyline fill="none" stroke="#000000" stroke-width="10" stroke-linecap="round" stroke-linejoin="round" stroke-miterlimit="10" points="
		9154.2,252.5 9163.4,241.2 9171.1,252.5 	"/>
</g>
<g id="Ï">
	<path fill="none" stroke="#000000" stroke-width="10" stroke-linecap="round" stroke-linejoin="round" stroke-miterlimit="10" d="
		M9063.3,314.9c0,0-21.3-1.7-16.7-18.7c2.2-8.1,13.4-13.3,22.9-17.8c11.8-5.6,26.8-18.5,21-22.2c-3.3-2.1-10.7,23.8-9.9,53.4
		c0.9,28.8-8,53.3-40.7,53.3c-44.7,0-45.2-45.3-3-45.3"/>
	<path fill="none" stroke="#000000" stroke-width="10" stroke-linecap="round" stroke-miterlimit="10" d="M9062.4,242.7
		c0,0,3.8,1.2,1.8,2.9c-0.9,0.8-2.8-1.6-0.7-2.4"/>
	<path fill="none" stroke="#000000" stroke-width="10" stroke-linecap="round" stroke-miterlimit="10" d="M9078.2,242.7
		c0,0,3.8,1.2,1.8,2.9c-0.9,0.8-2.8-1.6-0.7-2.4"/>
</g>
<g id="Î">
	<path fill="none" stroke="#000000" stroke-width="10" stroke-linecap="round" stroke-linejoin="round" stroke-miterlimit="10" d="
		M8975.3,314.9c0,0-21.3-1.7-16.7-18.7c2.2-8.1,13.4-13.3,22.9-17.8c11.8-5.6,26.8-18.5,21-22.2c-3.3-2.1-10.7,23.8-9.9,53.4
		c0.9,28.8-8,53.3-40.7,53.3c-44.7,0-45.2-45.3-3-45.3"/>
	
		<polyline fill="none" stroke="#000000" stroke-width="10" stroke-linecap="round" stroke-linejoin="round" stroke-miterlimit="10" points="
		8972.2,247.5 8981.4,236.2 8989.1,247.5 	"/>
</g>
<g id="Ë">
	<path fill="none" stroke="#000000" stroke-width="10" stroke-linecap="round" stroke-linejoin="round" stroke-miterlimit="10" d="
		M8869.5,282.1c-7.8-24.9-65.6-31.4-70.2,0c-5.5,37.2,47.2,33.3,47.2,23.8s-62.5-10.2-62.5,28.2c0,31.9,78,45.8,105.1-1.8"/>
	<path fill="none" stroke="#000000" stroke-width="10" stroke-linecap="round" stroke-miterlimit="10" d="M8822.4,241.7
		c0,0,3.8,1.2,1.8,2.9c-0.9,0.8-2.8-1.6-0.7-2.4"/>
	<path fill="none" stroke="#000000" stroke-width="10" stroke-linecap="round" stroke-miterlimit="10" d="M8838.2,241.7
		c0,0,3.8,1.2,1.8,2.9c-0.9,0.8-2.8-1.6-0.7-2.4"/>
</g>
<g id="Ê">
	<path fill="none" stroke="#000000" stroke-width="10" stroke-linecap="round" stroke-linejoin="round" stroke-miterlimit="10" d="
		M8748.5,282.1c-7.8-24.9-65.6-31.4-70.2,0c-5.5,37.2,47.2,33.3,47.2,23.8s-62.5-10.2-62.5,28.2c0,31.9,78,45.8,105.1-1.8"/>
	
		<polyline fill="none" stroke="#000000" stroke-width="10" stroke-linecap="round" stroke-linejoin="round" stroke-miterlimit="10" points="
		8703.2,248.5 8712.4,237.2 8720.1,248.5 	"/>
</g>
<g id="È">
	<path fill="none" stroke="#000000" stroke-width="10" stroke-linecap="round" stroke-linejoin="round" stroke-miterlimit="10" d="
		M8626.5,282.1c-7.8-24.9-65.6-31.4-70.2,0c-5.5,37.2,47.2,33.3,47.2,23.8s-62.5-10.2-62.5,28.2c0,31.9,78,45.8,105.1-1.8"/>
	<path fill="none" stroke="#000000" stroke-width="10" stroke-linecap="round" stroke-linejoin="round" stroke-miterlimit="10" d="
		M8594.1,248c-2.8-2.6-15.6-14.5-15.6-14.5"/>
</g>
<g id="É">
	<path fill="none" stroke="#000000" stroke-width="10" stroke-linecap="round" stroke-linejoin="round" stroke-miterlimit="10" d="
		M8502.5,282.1c-7.8-24.9-65.6-31.4-70.2,0c-5.5,37.2,47.2,33.3,47.2,23.8s-62.5-10.2-62.5,28.2c0,31.9,78,45.8,105.1-1.8"/>
	<path fill="none" stroke="#000000" stroke-width="10" stroke-linecap="round" stroke-linejoin="round" stroke-miterlimit="10" d="
		M8466.1,247c0,0,20.9-15.5,17.1-12.7"/>
</g>
<g id="Ç">
	<path fill="none" stroke="#000000" stroke-width="10" stroke-linecap="round" stroke-linejoin="round" stroke-miterlimit="10" d="
		M8343,363.3c0,0-5.8,12.5-3.7,11.8c2.2-0.8,13.7-0.6,12.7,7.1c-1.4,11-16.4,4-16.4,4"/>
	<path fill="none" stroke="#000000" stroke-width="10" stroke-linecap="round" stroke-linejoin="round" stroke-miterlimit="10" d="
		M8343.7,287.3c-20.9,39.8,45.5,43.8,48.2,5.9c1.9-26.9-51.8-45.3-86.8-9.5c-20.4,20.9-21.3,79.2,38.2,79.2
		c23.2,0,46.8-10.2,54.8-26.4"/>
</g>
<g id="Ä">
	<path id="joinb_7_" fill="none" stroke="#000000" stroke-width="10" stroke-linecap="round" stroke-miterlimit="10" d="M8102,348.1
		c1.1,1.9,47.8,65,139.3-84.4c3.3-5.4-15.1,99.3,21.8,99.3"/>
	<path fill="none" stroke="#000000" stroke-width="10" stroke-linecap="round" stroke-miterlimit="10" d="M8134.7,299.5
		c-14.3,3.9-37,53.3,128.4,22.2"/>
	<path fill="none" stroke="#000000" stroke-width="10" stroke-linecap="round" stroke-miterlimit="10" d="M8233.4,245.7
		c0,0,3.8,1.2,1.8,2.9c-0.9,0.8-2.8-1.6-0.7-2.4"/>
	<path fill="none" stroke="#000000" stroke-width="10" stroke-linecap="round" stroke-miterlimit="10" d="M8249.2,245.7
		c0,0,3.8,1.2,1.8,2.9c-0.9,0.8-2.8-1.6-0.7-2.4"/>
</g>
<g id="Â">
	<path id="joinb_6_" fill="none" stroke="#000000" stroke-width="10" stroke-linecap="round" stroke-miterlimit="10" d="M7920,348.1
		c1.1,1.9,47.8,65,139.3-84.4c3.3-5.4-15.1,99.3,21.8,99.3"/>
	<path fill="none" stroke="#000000" stroke-width="10" stroke-linecap="round" stroke-miterlimit="10" d="M7952.7,299.5
		c-14.3,3.9-37,53.3,128.4,22.2"/>
	
		<polyline fill="none" stroke="#000000" stroke-width="10" stroke-linecap="round" stroke-linejoin="round" stroke-miterlimit="10" points="
		8051.2,250.5 8060.4,239.2 8068.1,250.5 	"/>
</g>
<g id="À">
	<path id="joinb_5_" fill="none" stroke="#000000" stroke-width="10" stroke-linecap="round" stroke-miterlimit="10" d="M7735,348.1
		c1.1,1.9,47.8,65,139.3-84.4c3.3-5.4-15.1,99.3,21.8,99.3"/>
	<path fill="none" stroke="#000000" stroke-width="10" stroke-linecap="round" stroke-miterlimit="10" d="M7767.7,299.5
		c-14.3,3.9-37,53.3,128.4,22.2"/>
	<path fill="none" stroke="#000000" stroke-width="10" stroke-linecap="round" stroke-linejoin="round" stroke-miterlimit="10" d="
		M7868.1,249c-2.8-2.6-15.6-14.5-15.6-14.5"/>
</g>
<g id="Z">
	<path fill="none" stroke="#000000" stroke-width="10" stroke-linecap="round" stroke-linejoin="round" stroke-miterlimit="10" d="
		M7541.1,298.4c-8.9,8.8-42.8,12.2-40-15.5c2.9-28.3,44.9-22.1,72.7-15.5c25.6,6,55.3,7.3,52,1.6c-2-3.3-113,93.8-110.6,93.8
		c3.2,0,51.2-9.5,105.1-3.7"/>
</g>
<g id="Y">
	
		<path id="joinb_10_" fill="none" stroke="#000000" stroke-width="10" stroke-linecap="round" stroke-linejoin="round" stroke-miterlimit="10" d="
		M7328.7,328.3c-34.3-11.9-24.3-72.9,19-64.2c49.3,9.9-19.6,98.8,30.3,98.8c34.4,0,51.9-88.2,47.4-88.2c-2.3,0-5.4,37.1-6.2,73.2
		c-0.8,34.5,7.4,68.9-18.7,68.8c-24.7,0-12.3-53.9,40-53.9"/>
</g>
<g id="X">
	
		<path id="joinb_2_" fill="none" stroke="#000000" stroke-width="10" stroke-linecap="round" stroke-linejoin="round" stroke-miterlimit="10" d="
		M7149.9,304c-5.1,11.9-31.7,16.4-36.2-3.2c-8.4-36.5,40.7-54.4,65.5-23.8c24.8,30.6,24,85.8,64.2,85.8"/>
	<path fill="none" stroke="#000000" stroke-width="10" stroke-linecap="round" stroke-linejoin="round" stroke-miterlimit="10" d="
		M7247.9,255.4c-19.5,31.7-73.4,88.5-105.6,107.5"/>
</g>
<g id="W">
	<path fill="none" stroke="#000000" stroke-width="10" stroke-linecap="round" stroke-linejoin="round" stroke-miterlimit="10" d="
		M6904.6,318c-19.5,15.3-43.7,6.3-43.6-18.2c0.2-32.6,43.8-42,60-19.3c15,21.1,9.8,74.8,9,82.2c0,0.2,0.2,0.3,0.3,0.1L6983,268
		c0,0-26.9,94.8,16.9,94.8c43.8,0,59.2-94.8,35.9-112.5"/>
</g>
<g id="V">
	<path fill="none" stroke="#000000" stroke-width="10" stroke-linecap="round" stroke-linejoin="round" stroke-miterlimit="10" d="
		M6710,309c0,0-35.3,16.2-40.3-13.9c-6.3-37.3,90-72.8,80.5,66.6c-0.1,0.9,1,1.5,1.8,0.9c11.1-9.5,66.6-60,56.5-98.9
		c-2.4-9.4-10-17.6-21.1-19.9"/>
</g>
<g id="U">
	<path fill="none" stroke="#000000" stroke-width="10" stroke-linecap="round" stroke-linejoin="round" stroke-miterlimit="10" d="
		M6509.1,311.6c-22.5-3.7-22.5-49.6,16.5-49.1c54.8,0.7-17.8,100.4,32.4,100.4c40.3,0,52.7-98.1,48.4-94.4
		c-13.9,12.1-15,94.4,6.3,94.4c15.7,0,19.8-19.2,19.9-21.7"/>
</g>
<g id="T">
	<path fill="none" stroke="#000000" stroke-width="10" stroke-linecap="round" stroke-linejoin="round" stroke-miterlimit="10" d="
		M6344.1,290c-10.6,28.2-47.5,24.8-48.8,2.3c-2.8-50.9,67.5-24.5,86.2-19.6c18.7,4.9,49.9,13.9,65.8-5.1"/>
	<path fill="none" stroke="#000000" stroke-width="10" stroke-linecap="round" stroke-linejoin="round" stroke-miterlimit="10" d="
		M6411.8,267.6c-4.6,3-15.6,12.1-18.5,38c-3.3,30.1-0.5,57.2-30.6,57.2c-25,0-34.3-17.6-34.3-17.6"/>
	
		<path id="end_6_" fill="none" stroke="#000000" stroke-width="10" stroke-linecap="round" stroke-linejoin="round" stroke-miterlimit="10" d="
		M6399.1,362.9"/>
</g>
<g id="S">
	<path fill="none" stroke="#000000" stroke-width="10" stroke-linecap="round" stroke-linejoin="round" stroke-miterlimit="10" d="
		M6241.9,289.6c0,0,1.8-33.9-65.3-26.6c-58.5,6.3-69.5,60.9,2.3,60.9c77.4,0,44.4,60.9-31,30.3"/>
	
		<path id="end_10_" fill="none" stroke="#000000" stroke-width="10" stroke-linecap="round" stroke-linejoin="round" stroke-miterlimit="10" d="
		M6233.2,362.9"/>
</g>
<g id="R">
	<path fill="none" stroke="#000000" stroke-width="10" stroke-linecap="round" stroke-linejoin="round" stroke-miterlimit="10" d="
		M5995,319.4c-9.5,11.4-48.5,14.3-46.7-18.5c2.5-45.1,127.1-59.2,117.1-9.3c-6.3,31.7-53.5,33.8-53.9,25.2
		c-0.3-7.9,40-5.2,40.1,17.6c0.2,42.7,34,30,35.6,9.9"/>
	<path fill="none" stroke="#000000" stroke-width="10" stroke-linecap="round" stroke-linejoin="round" stroke-miterlimit="10" d="
		M6029.3,279.6c-5.8,5.1-15.3,9.9-13.6,45.2s-18.3,38-26.9,38c-4.2,0-19,0-28.5-14.3"/>
</g>
<g id="Q">
	<path fill="none" stroke="#000000" stroke-width="10" stroke-linecap="round" stroke-linejoin="round" stroke-miterlimit="10" d="
		M5816.2,345.7c0,0-27.5-8.7-27.5-37.2c0-28.5,23-48.3,56-46.5c33,1.8,44.9,29.3,42.3,50.4s-28,50.4-73.7,50.4
		c-45.7,0-28.7-37.1,17.3-20.3c18.1,6.6,61.9,44.1,89,29.8"/>
	
		<path id="end_9_" fill="none" stroke="#000000" stroke-width="10" stroke-linecap="round" stroke-linejoin="round" stroke-miterlimit="10" d="
		M5900.5,362.9"/>
</g>
<g id="P">
	<path fill="none" stroke="#000000" stroke-width="10" stroke-linecap="round" stroke-linejoin="round" stroke-miterlimit="10" d="
		M5689.7,279.4c0,0.1-15.6,11.6-13.6,43.6c2.7,43.5-41.7,50.2-55.9,25.9"/>
	<path fill="none" stroke="#000000" stroke-width="10" stroke-linecap="round" stroke-linejoin="round" stroke-miterlimit="10" d="
		M5655,321.2c-7.7,5-48.1,15.7-43.7-18.5c5.8-45.2,120.4-65.5,117-4.8c-1.6,29.1-43.8,29.1-43.8,29.1"/>
</g>
<g id="O">
	<path fill="none" stroke="#000000" stroke-width="10" stroke-linecap="round" stroke-linejoin="round" stroke-miterlimit="10" d="
		M5486.1,271c0,0-29.8,10.3-29.8,49.4c0,34.3,32.2,42.6,46,42.6c15.6,0,46.5-6,48.3-52.7c1.8-47.1-40.7-55.1-54.7-36.6
		c-14,18.5,10.3,65,67.3,28.5"/>
</g>
<g id="N">
	<path fill="none" stroke="#000000" stroke-width="10" stroke-linecap="round" stroke-linejoin="round" stroke-miterlimit="10" d="
		M5309.4,324.3c-9.5-15.3-54.8-19.5-52.6,15.3c2.6,40.4,98.7,35.3,98.8-73.2c0,0,31.7,96.4,34.3,96.4c5,0-3.4-105.4,44.4-105.4"/>
	
		<path id="end_3_" fill="none" stroke="#000000" stroke-width="10" stroke-linecap="round" stroke-linejoin="round" stroke-miterlimit="10" d="
		M5410.8,362.9"/>
</g>
<g id="M">
	<path id="joinb_8_" fill="none" stroke="#000000" stroke-width="10" stroke-linecap="round" stroke-miterlimit="10" d="
		M5099.3,325.5c-42.1-31-70.8,32.3-14.8,37.2c55.6,4.9,75.9-87.6,66.7-94.2c-8.4-6-3.3-3.8,14.4,93.2c0.2,1.3,2.2,1.6,2.8,0.5
		c15-31,29.7-78.2,52.6-98.6c2.1-1.9-37.3,99.3,4.5,99.3"/>
</g>
<g id="L">
	<path fill="none" stroke="#000000" stroke-width="10" stroke-linecap="round" stroke-linejoin="round" stroke-miterlimit="10" d="
		M4986,292.6c10.9-2.9,14.4-31-12.1-31.9c-32-1.1-28.9,38.7-28.9,51s6.3,51.1-35.2,51.1s-20.2-56,34.9-19.4
		c28.1,18.7,47.4,29.5,69,5.8"/>
</g>
<g id="K">
	<path fill="none" stroke="#000000" stroke-width="10" stroke-linecap="round" stroke-linejoin="round" stroke-miterlimit="10" d="
		M4701.1,305.1c-15.5-5.6-16.9-24.8-0.4-33.8c11.3-6.1,20.4-3.9,36.4-1.9c16.9,2.1,31-3,29.4-6.2c-3.6-7.2-24.1-1-24.6,47.6
		c-0.4,38.4-16.1,52.1-31.7,52.1c-20.6,0-28.7-10.7-28.7-10.7"/>
	<path fill="none" stroke="#000000" stroke-width="10" stroke-linecap="round" stroke-linejoin="round" stroke-miterlimit="10" d="
		M4832.3,259c0,0-12.7,1.6-21.3,12c-10.4,12.5-22.7,39-44.3,43.8c-7.1,1.6-27.9,8.8-27.8-1.4c0.2-10.2,24.8,0,39.8,13.2
		c15,13.2,31,55.4,60,26.4"/>
</g>
<g id="J">
	<path fill="none" stroke="#000000" stroke-width="10" stroke-linecap="round" stroke-linejoin="round" stroke-miterlimit="10" d="
		M4588.8,325.2c0,0-25.7-1.6-24.5-22.7c0.9-14.9,19.8-18.9,34.3-23.4c27.5-8.6,44-25.5,36.6-28c-7.4-2.5-17.3,22.5-17.3,48.1
		c0,25.5,13.7,109.2-30.6,109.2c-38.2,0-16.7-69.4,38.6-78.7"/>
</g>
<g id="I">
	
		<path id="end_5_" fill="none" stroke="#000000" stroke-width="10" stroke-linecap="round" stroke-linejoin="round" stroke-miterlimit="10" d="
		M4507.6,362.9"/>
	<path fill="none" stroke="#000000" stroke-width="10" stroke-linecap="round" stroke-linejoin="round" stroke-miterlimit="10" d="
		M4489.3,314.9c0,0-21.3-1.7-16.7-18.7c2.2-8.1,13.4-13.3,22.9-17.8c11.8-5.6,26.8-18.5,21-22.2c-3.3-2.1-10.7,23.8-9.9,53.4
		c0.9,28.8-8,53.3-40.7,53.3c-44.7,0-45.2-45.3-3-45.3"/>
</g>
<g id="H">
	
		<path id="end_1_" fill="none" stroke="#000000" stroke-width="10" stroke-linecap="round" stroke-linejoin="round" stroke-miterlimit="10" d="
		M4384.5,362.9"/>
	<path fill="none" stroke="#000000" stroke-width="10" stroke-linecap="round" stroke-linejoin="round" stroke-miterlimit="10" d="
		M4231.4,305.7c-6.9-4.7-19.4-25,3.3-34c15.5-6.1,40.3,2.9,61.8,3.5c23.3,0.7,30.1-13.2,24.5-16.6c-4.9-2.9-15.5,4.3-16.2,52.8
		c-0.6,38.4-19.6,51.5-40.9,51.5c-28.2,0-37.1-19-37.1-19"/>
	<path fill="none" stroke="#000000" stroke-width="10" stroke-linecap="round" stroke-linejoin="round" stroke-miterlimit="10" d="
		M4389.8,266.7c-32,0-25,78.2-15.1,96.1"/>
	<path fill="none" stroke="#000000" stroke-width="10" stroke-linecap="round" stroke-linejoin="round" stroke-miterlimit="10" d="
		M4285.6,315.7c0,0,45.8-4,102.5-1.9"/>
</g>
<g id="G">
	
		<path id="joinb_3_" fill="none" stroke="#000000" stroke-width="10" stroke-linecap="round" stroke-linejoin="round" stroke-miterlimit="10" d="
		M4166.8,295.4c0,0-0.6-33.5-36.3-33.5c-35.7,0-73.9,26.4-73.9,67.6c0,0-1.8,33.3,32,33.3c33.8,0,80.3-66,68.3-66
		c-12,0,14.2,130.8-28.2,130.8c-36.3,0,4.9-64.4,41.2-64.4"/>
</g>
<g id="F">
	<path id="end" fill="none" stroke="#000000" stroke-width="10" stroke-linecap="round" stroke-miterlimit="10" d="M3980,362.9"/>
	<path fill="none" stroke="#000000" stroke-width="10" stroke-linecap="round" stroke-miterlimit="10" d="M3858.7,310.2
		c-20.6-14.8-5.6-47.6,28.8-42.6c34.3,5,132.9,37.4,130.2,2.7c-1.3-17.3-48.6-15.6-48.3,42.3c0.2,35.5-8.7,50.1-49.1,50.1
		c-25.3,0-42.2-17.9-43.1-28"/>
	<path fill="none" stroke="#000000" stroke-width="10" stroke-linecap="round" stroke-miterlimit="10" d="M3929.8,317.5
		c0,0,36.7-5.5,68.1-2.4"/>
</g>
<g id="E">
	<path fill="none" stroke="#000000" stroke-width="10" stroke-linecap="round" stroke-linejoin="round" stroke-miterlimit="10" d="
		M3802.5,282.1c-7.8-24.9-65.6-31.4-70.2,0c-5.5,37.2,47.2,33.3,47.2,23.8s-62.5-10.2-62.5,28.2c0,31.9,78,45.8,105.1-1.8"/>
</g>
<g id="D">
	<path fill="none" stroke="#000000" stroke-width="10" stroke-linecap="round" stroke-linejoin="round" stroke-miterlimit="10" d="
		M3571.3,317.4c-13.7-1.6-41.3-35.3,3.9-50.4c46.1-15.3,110.8,15.5,102.3,62.9c-14.7,81.6-127.6-19-128.3,21.6
		c-0.2,11.6,36.1,20.8,49.9-12.9c9.5-23.1,1.6-34.1,21.6-57.3"/>
</g>
<g id="C">
	<path fill="none" stroke="#000000" stroke-width="10" stroke-linecap="round" stroke-linejoin="round" stroke-miterlimit="10" d="
		M3459.7,287.3c-20.9,39.8,45.5,43.8,48.2,5.9c1.9-26.9-51.8-45.3-86.8-9.5c-20.4,20.9-21.3,79.2,38.2,79.2
		c23.2,0,46.8-10.2,54.8-26.4"/>
</g>
<g id="B">
	<path fill="none" stroke="#000000" stroke-width="10" stroke-linecap="round" stroke-miterlimit="10" d="M3337,259
		c-35.1,43.3-27.4,103.9-87.3,103.9c-43.3,0-28.5-56.9,1.4-78.2c38.4-27.3,104.1-33.5,110.9,2.6c5.8,30.6-59.5,33.8-58.9,26.3
		c0.3-4.4,62.8,0.1,63.3,25.6c0.7,32-58.4,23.8-66.3,18.8"/>
</g>
<g id="A">
	<path id="joinb_1_" fill="none" stroke="#000000" stroke-width="10" stroke-linecap="round" stroke-miterlimit="10" d="M3016,348.1
		c1.1,1.9,47.8,65,139.3-84.4c3.3-5.4-15.1,99.3,21.8,99.3"/>
	<path fill="none" stroke="#000000" stroke-width="10" stroke-linecap="round" stroke-miterlimit="10" d="M3048.7,299.5
		c-14.3,3.9-37,53.3,128.4,22.2"/>
</g>
<g id="ô">
	<path id="joinab_9_" fill="none" stroke="#000000" stroke-width="10" stroke-linecap="round" stroke-miterlimit="10" d="
		M2812.5,363.2c10.3,0,7.7-28.3,23.2-31.7c1.5-0.3,3.1,2.1,1.7,2.7c-19.9,8.1-11.9,28.9,1.9,29.1c21,0.2,22.1-32.3,11.4-32.3
		c-16.7,0-0.1,32.3,30.8,32.3"/>
	
		<polyline fill="none" stroke="#000000" stroke-width="10" stroke-linecap="round" stroke-linejoin="round" stroke-miterlimit="10" points="
		2833.2,318.5 2842.4,307.2 2850.1,318.5 	"/>
</g>
<g id="ö">
	<path id="joinab_29_" fill="none" stroke="#000000" stroke-width="10" stroke-linecap="round" stroke-miterlimit="10" d="
		M2897.5,363.2c10.3,0,7.7-28.3,23.2-31.7c1.5-0.3,3.1,2.1,1.7,2.7c-19.9,8.1-11.9,28.9,1.9,29.1c21,0.2,22.1-32.3,11.4-32.3
		c-16.7,0-0.1,32.3,30.8,32.3"/>
	<path fill="none" stroke="#000000" stroke-width="10" stroke-linecap="round" stroke-miterlimit="10" d="M2917.4,316.7
		c0,0,3.8,1.2,1.8,2.9c-0.9,0.8-2.8-1.6-0.7-2.4"/>
	<path fill="none" stroke="#000000" stroke-width="10" stroke-linecap="round" stroke-miterlimit="10" d="M2933.2,316.7
		c0,0,3.8,1.2,1.8,2.9c-0.9,0.8-2.8-1.6-0.7-2.4"/>
</g>
<g id="ï">
	<path id="joinab_23_" fill="none" stroke="#000000" stroke-width="10" stroke-linecap="round" stroke-miterlimit="10" d="
		M2762.9,363.2c17.3,0,26.1-30.1,21.5-30.1c-0.9,0-7.6,30.1,8.6,30.1"/>
	<path fill="none" stroke="#000000" stroke-width="10" stroke-linecap="round" stroke-miterlimit="10" d="M2776.4,313.7
		c0,0,3.8,1.2,1.8,2.9c-0.9,0.8-2.8-1.6-0.7-2.4"/>
	<path fill="none" stroke="#000000" stroke-width="10" stroke-linecap="round" stroke-miterlimit="10" d="M2792.2,313.7
		c0,0,3.8,1.2,1.8,2.9c-0.9,0.8-2.8-1.6-0.7-2.4"/>
</g>
<g id="î">
	<path id="joinab_7_" fill="none" stroke="#000000" stroke-width="10" stroke-linecap="round" stroke-miterlimit="10" d="
		M2710.9,363.2c17.3,0,26.1-30.1,21.5-30.1c-0.9,0-7.6,30.1,8.6,30.1"/>
	
		<polyline fill="none" stroke="#000000" stroke-width="10" stroke-linecap="round" stroke-linejoin="round" stroke-miterlimit="10" points="
		2725.2,323.5 2734.4,312.2 2742.1,323.5 	"/>
</g>
<g id="ë">
	<path fill="none" stroke="#000000" stroke-width="10" stroke-linecap="round" stroke-miterlimit="10" d="M2667.4,317.7
		c0,0,3.8,1.2,1.8,2.9c-0.9,0.8-2.8-1.6-0.7-2.4"/>
	<path fill="none" stroke="#000000" stroke-width="10" stroke-linecap="round" stroke-miterlimit="10" d="M2683.2,317.7
		c0,0,3.8,1.2,1.8,2.9c-0.9,0.8-2.8-1.6-0.7-2.4"/>
	<path id="joinab_19_" fill="none" stroke="#000000" stroke-width="10" stroke-linecap="round" stroke-miterlimit="10" d="
		M2649.9,363.2c14.1,0,42.3-15.5,33.6-25.2c-7.7-8.6-21,10.4-15,20.1c2.2,3.6,7.6,5,23.8,5"/>
</g>
<g id="ê">
	<path id="joinab_20_" fill="none" stroke="#000000" stroke-width="10" stroke-linecap="round" stroke-miterlimit="10" d="
		M2585.9,363.2c14.1,0,42.3-15.5,33.6-25.2c-7.7-8.6-21,10.4-15,20.1c2.2,3.6,7.6,5,23.8,5"/>
	
		<polyline fill="none" stroke="#000000" stroke-width="10" stroke-linecap="round" stroke-linejoin="round" stroke-miterlimit="10" points="
		2607.2,323.5 2616.4,312.2 2624.1,323.5 	"/>
</g>
<g id="è">
	<path id="joinab_12_" fill="none" stroke="#000000" stroke-width="10" stroke-linecap="round" stroke-miterlimit="10" d="
		M2521.9,363.2c14.1,0,42.3-15.5,33.6-25.2c-7.7-8.6-21,10.4-15,20.1c2.2,3.6,7.6,5,23.8,5"/>
	<path fill="none" stroke="#000000" stroke-width="10" stroke-linecap="round" stroke-linejoin="round" stroke-miterlimit="10" d="
		M2552.1,325c-2.8-2.6-15.6-14.5-15.6-14.5"/>
</g>
<g id="é">
	<path id="joinab_13_" fill="none" stroke="#000000" stroke-width="10" stroke-linecap="round" stroke-miterlimit="10" d="
		M2457.9,363.2c14.1,0,42.3-15.5,33.6-25.2c-7.7-8.6-21,10.4-15,20.1c2.2,3.6,7.6,5,23.8,5"/>
	<path fill="none" stroke="#000000" stroke-width="10" stroke-linecap="round" stroke-linejoin="round" stroke-miterlimit="10" d="
		M2479.1,326c0,0,20.9-15.5,17.1-12.7"/>
</g>
<g id="ç">
	<path id="joinab_3_" fill="none" stroke="#000000" stroke-width="10" stroke-linecap="round" stroke-miterlimit="10" d="
		M2394.6,363.2c6,0,11.4-5,16.5-19.3c4.8-13.3,28.1-15.4,20,0.1c-2.5,4.9,9.1-14.1-9.2-9.6c-8.7,2.1-8.2,20-3.2,24.7
		c4.6,4.3,10.5,4.1,16.4,4.1"/>
	<path fill="none" stroke="#000000" stroke-width="10" stroke-linecap="round" stroke-linejoin="round" stroke-miterlimit="10" d="
		M2424,362.3c0,0-5.8,12.5-3.7,11.8c2.2-0.8,13.7-0.6,12.7,7.1c-1.4,11-16.4,4-16.4,4"/>
</g>
<g id="ä">
	<path id="joinab_5_" fill="none" stroke="#000000" stroke-width="10" stroke-linecap="round" stroke-miterlimit="10" d="
		M2329.8,364.2c16.2,0,7.9-37.2,38.8-26.4c0.2,0.1,0.1,0.5-0.1,0.4c-24.5-10.7-29.7,19.7-22,24.5c9.1,5.8,20-7.4,20.2-13.9
		c0.3-10-8.7,15.3,11.2,15.3"/>
	<path fill="none" stroke="#000000" stroke-width="10" stroke-linecap="round" stroke-miterlimit="10" d="M2349.4,318.7
		c0,0,3.8,1.2,1.8,2.9c-0.9,0.8-2.8-1.6-0.7-2.4"/>
	<path fill="none" stroke="#000000" stroke-width="10" stroke-linecap="round" stroke-miterlimit="10" d="M2365.2,318.7
		c0,0,3.8,1.2,1.8,2.9c-0.9,0.8-2.8-1.6-0.7-2.4"/>
</g>
<g id="â">
	<path id="joinab_1_" fill="none" stroke="#000000" stroke-width="10" stroke-linecap="round" stroke-miterlimit="10" d="
		M2261.8,364.2c16.2,0,7.9-37.2,38.8-26.4c0.2,0.1,0.1,0.5-0.1,0.4c-24.5-10.7-29.7,19.7-22,24.5c9.1,5.8,20-7.4,20.2-13.9
		c0.3-10-8.7,15.3,11.2,15.3"/>
	
		<polyline fill="none" stroke="#000000" stroke-width="10" stroke-linecap="round" stroke-linejoin="round" stroke-miterlimit="10" points="
		2281.2,323.5 2290.4,312.2 2298.1,323.5 	"/>
</g>
<g id="à">
	<path id="joinab_4_" fill="none" stroke="#000000" stroke-width="10" stroke-linecap="round" stroke-miterlimit="10" d="
		M2192.8,363.2c16.2,0,7.9-37.2,38.8-26.4c0.2,0.1,0.1,0.5-0.1,0.4c-24.5-10.7-29.7,19.7-22,24.5c9.1,5.8,20-7.4,20.2-13.9
		c0.3-10-8.7,15.3,11.2,15.3"/>
	<path fill="none" stroke="#000000" stroke-width="10" stroke-linecap="round" stroke-linejoin="round" stroke-miterlimit="10" d="
		M2221.1,322c-2.8-2.6-15.6-14.5-15.6-14.5"/>
</g>
<g id="z">
	<path id="joinab_51_" fill="none" stroke="#000000" stroke-width="10" stroke-linecap="round" stroke-miterlimit="10" d="
		M2050.5,363.2c17.1,0,20.3-46.8,43.4-37.2c15.3,6.4-4.6,37.2-13.6,37.2c-10.9,0,15.8-23.8,18.7,13c1.1,15,5.2,55.8-14.5,55.8
		c-19.9,0,6-68.8,33.9-68.8"/>
</g>
<g id="y">
	<path id="joinab_14_" fill="none" stroke="#000000" stroke-width="10" stroke-linecap="round" stroke-miterlimit="10" d="
		M1969,363.2c12.5,0,18.7-22,20.5-31.1c0.1-0.7-0.9-1-1.2-0.3c-7,20.6-4.3,31.5,5,31.5c15.4,0,17.8-23.9,16.4-27.8
		c-3.7-10.1,5.3,104.7-13,107.9c-28.1,4.9,0.8-80.1,31.3-80.1"/>
</g>
<g id="x">
	<path id="joinab_49_" fill="none" stroke="#000000" stroke-width="10" stroke-linecap="round" stroke-miterlimit="10" d="
		M1877.1,363.2c9,0,26.9-40,23.8-40c-1.4,0-4.7,40,46.4,40"/>
	<path fill="none" stroke="#000000" stroke-width="10" stroke-linecap="round" stroke-miterlimit="10" d="M1933.6,318.4
		c0,0-18.8,22.9-29.6,44.8"/>
</g>
<g id="w">
	<path id="joinab_33_" fill="none" stroke="#000000" stroke-width="10" stroke-linecap="round" stroke-miterlimit="10" d="
		M1764.2,363.2c16.9,0,26.7-33.5,24.5-33.8c-5.6-0.9-12.6,33.8,3.8,33.8s18.6-33.5,16.4-33.5c-1.4,0-5.9,33.5,11.4,33.5
		c17.3,0,12.9-37,10.8-37c-2.1,0-4.1,37,15.7,37"/>
</g>
<g id="v">
	<path id="joinab_47_" fill="none" stroke="#000000" stroke-width="10" stroke-linecap="round" stroke-miterlimit="10" d="
		M1678,363.2c10.9,0,20.8-29.7,19.6-33.2c-2.2-6.2,0.3,33.2,8.4,33.2c4.8,0,17.8-22.2,18.1-31c0.2-6.3-2.1-6.7-2.7-0.1
		c-0.8,8.8-1.2,31.1,21.4,31.1"/>
</g>
<g id="u">
	<path id="joinab_30_" fill="none" stroke="#000000" stroke-width="10" stroke-linecap="round" stroke-miterlimit="10" d="
		M1586.8,363.2c10.9,0,27.1-29.1,25.9-32.6c-2.2-6.2-17.3,32.6,2.1,32.6c14.9,0,18.8-22.3,18.1-31c-0.1-1.6-2.5-1.7-2.7-0.1
		c-1.3,8.7-1.2,31.1,21.4,31.1"/>
</g>
<g id="t">
	<path id="joinab_45_" fill="none" stroke="#000000" stroke-width="10" stroke-linecap="round" stroke-miterlimit="10" d="
		M1520.8,363.2c26.8,0,39.3-89.1,24.6-89.1c-14.8,0-16.4,89.1,19.2,89.1"/>
	<path fill="none" stroke="#000000" stroke-width="10" stroke-linecap="round" stroke-miterlimit="10" d="M1506.7,295.1
		c44.1,9.9,89.3,0,89.3,0"/>
</g>
<g id="s">
	
		<path id="joinab_28_" fill="none" stroke="#000000" stroke-width="10" stroke-linecap="round" stroke-linejoin="round" stroke-miterlimit="10" d="
		M1435.2,363.2c16.8,0,43.7-50.2,28.6-43.4c-5.9,2.6,9.1,12.1,13.7,28.9c4.4,15.9-15.7,18.3-20.5,9.5c-0.3-0.6,0.3-1.4,0.9-1
		c4.3,2.3,18.5,6.1,36.7,6.1"/>
</g>
<g id="r">
	<path id="joinab_43_" fill="none" stroke="#000000" stroke-width="10" stroke-linecap="round" stroke-miterlimit="10" d="
		M1377.1,363.2c2.6,0,20.9-1.6,18.6-37.5c-0.4-6.3-10.1,7.6-8.1,10.2c3.3,4.1,17.2-1.5,20.3,2.9c3.9,5.5-11.1,24.4,9.7,24.4"/>
</g>
<g id="q">
	<path id="joinab_24_" fill="none" stroke="#000000" stroke-width="10" stroke-linecap="round" stroke-miterlimit="10" d="
		M1303.1,363.2c16.2,0,8.5-45.2,39.3-32c0.2,0.1,0.1,0.6-0.1,0.5c-24.5-13-29.8,23.8-22,29.8c8.9,6.9,22.9-9.6,20.2-16.9
		c-3.7-10.1-14,101.2,9.3,101.2c24.6,0-16.6-80.8-16.3-69.5c0.3,7.9,7.2-13.1,25.3-13.1"/>
</g>
<g id="p">
	
		<path id="joinab_41_" fill="none" stroke="#000000" stroke-width="10" stroke-linecap="round" stroke-linejoin="round" stroke-miterlimit="10" d="
		M1229.8,363.2c16.5,0,29.2-31.4,25-42.3s9.5,129.9-17.3,118.8c-18.9-7.8,19.8-110.8,35.9-109.6c24.3,1.8,4.6,43.8-13.5,25.7
		c8.3,8.2,15.6,7.3,28.4,7.3"/>
</g>
<g id="o">
	<path id="joinab_16_" fill="none" stroke="#000000" stroke-width="10" stroke-linecap="round" stroke-miterlimit="10" d="
		M1138.9,363.2c10.3,0,7.7-28.3,23.2-31.7c1.5-0.3,3.1,2.1,1.7,2.7c-19.9,8.1-11.9,28.9,1.9,29.1c21,0.2,22.1-32.3,11.4-32.3
		c-16.7,0-0.1,32.3,30.8,32.3"/>
</g>
<g id="n">
	<path id="joinab_39_" fill="none" stroke="#000000" stroke-width="10" stroke-linecap="round" stroke-miterlimit="10" d="
		M1056.4,363.2c15.4,0,23-29.1,26.7-28.4c3.7,0.7,1.3,28.7,2.9,28.4c1.6-0.3,16.9-28.8,22.7-25.4c5.8,3.4-2.9,25.4,10.3,25.4"/>
</g>
<g id="m">
	<path id="joinab_11_" fill="none" stroke="#000000" stroke-width="10" stroke-linecap="round" stroke-miterlimit="10" d="
		M950.7,363.2c15.4,0,23-29.1,26.7-28.4c3.7,0.7,1.3,28.7,2.9,28.4c1.6-0.3,18-32.1,23.9-28.7s1,30.2,4.2,28.7
		c6-2.9,10.7-28.9,19.3-28.5c7.7,0.4-1.7,28.5,13.8,28.5"/>
</g>
<g id="l">
	<path id="joinab_37_" fill="none" stroke="#000000" stroke-width="10" stroke-linecap="round" stroke-miterlimit="10" d="
		M895.4,363.2c26.8,0,59.4-110.4,35.2-110.4c-16.6,0-26.9,110.4,8.6,110.4"/>
</g>
<g id="k">
	<path id="joinab_10_" fill="none" stroke="#000000" stroke-width="10" stroke-linecap="round" stroke-miterlimit="10" d="
		M817.7,363.2c26.8,0,59.4-110.4,35.2-110.4c-16.6,0-10.6,91.3-10.8,109.5c0,1.1,1.7,1.2,2.1,0.2c3.4-8.2,12.7-33.6,22.2-33.5
		c11.7,0.1,13,18-8.1,23.2c-4,1-1.6-6.2,1.6-3.7c3.4,2.7,9.6,14.6,24.2,14.6"/>
</g>
<g id="j">
	<path id="joinab_34_" fill="none" stroke="#000000" stroke-width="10" stroke-linecap="round" stroke-miterlimit="10" d="
		M806.5,363.2c-30.5,0-59.4,85-31.3,80.1c18.3-3.2,8.2-117.1,12.6-117.1c2.3,0,3.9,37-23.2,37"/>
	<path fill="none" stroke="#000000" stroke-width="10" stroke-linecap="round" stroke-miterlimit="10" d="M784.5,297.9
		c0.1,0.1,14.1,4.4,6.9,10.7c-3.4,2.9-10.5-6-2.5-8.9"/>
</g>
<g id="i">
	<path id="joinab_8_" fill="none" stroke="#000000" stroke-width="10" stroke-linecap="round" stroke-miterlimit="10" d="
		M717.9,363.2c17.3,0,26.1-30.1,21.5-30.1c-0.9,0-7.6,30.1,8.6,30.1"/>
	<path fill="none" stroke="#000000" stroke-width="10" stroke-linecap="round" stroke-miterlimit="10" d="M734.8,306.4
		c0.1,0.1,14.1,4.4,6.9,10.7c-3.4,2.9-10.5-6-2.5-8.9"/>
</g>
<g id="h">
	<path id="joinab_31_" fill="none" stroke="#000000" stroke-width="10" stroke-linecap="round" stroke-miterlimit="10" d="
		M634.7,363.2c26.8,0,59.4-110.4,35.2-110.4c-16.6,0-10.5,91.3-10.7,109.5c0,1.1,1.7,1.2,2.1,0.2c3.4-8.2,14.6-31.8,24.2-31.8
		c12.4,0-6.4,32.6,15.6,32.6"/>
</g>
<g id="g">
	<path id="joinab_26_" fill="none" stroke="#000000" stroke-width="10" stroke-linecap="round" stroke-miterlimit="10" d="
		M563,363.2c16.2,0,8.3-45.2,39.2-32c0.2,0.1,0.1,0.6-0.1,0.5c-24.5-13-29.7,23.8-22,29.8c8.9,7,22.9-9.5,20.2-16.9
		c-3.7-10.1,7.1,95.6-11.2,98.7c-28.1,4.9,0.8-80.2,31.4-80.2"/>
</g>
<g id="f">
	<path id="joinab_27_" fill="none" stroke="#000000" stroke-width="10" stroke-linecap="round" stroke-miterlimit="10" d="
		M499.9,363.2c31,0,69.5-106.4,45.7-110.4c-18.5-3.1-15.6,48.2-15.6,98c0,44.6-1.9,83.4,9.9,84.7c30.7,3.5-16.7-92-20.8-72.3
		c-2.9,14,13.2,0,29.8,0"/>
</g>
<g id="e">
	<path id="joinab_17_" fill="none" stroke="#000000" stroke-width="10" stroke-linecap="round" stroke-miterlimit="10" d="
		M444.9,363.2c14.1,0,42.3-15.5,33.6-25.2c-7.7-8.6-21,10.4-15,20.1c2.2,3.6,7.6,5,23.8,5"/>
</g>
<g id="d">
	<path id="joinab_22_" fill="none" stroke="#000000" stroke-width="10" stroke-linecap="round" stroke-miterlimit="10" d="
		M362.2,363.2c32.3,0,8-34.2,37.7-33.5c0.6,0,0.1,0.1-0.5,0c-24.8-2.5-19.3,42.6-1.1,31.9c16.3-9.6,36.7-99.5,18.2-99.5
		c-13,0-17.6,101.1,15.1,101.1"/>
</g>
<g id="c">
	<path id="joinab_6_" fill="none" stroke="#000000" stroke-width="10" stroke-linecap="round" stroke-miterlimit="10" d="
		M309.6,363.2c6,0,11.4-5,16.5-19.3c4.8-13.3,28.1-15.4,20,0.1c-2.5,4.9,9.1-14.1-9.2-9.6c-8.7,2.1-8.2,20-3.2,24.7
		c4.6,4.3,10.5,4.1,16.4,4.1"/>
</g>
<g id="b">
	<path id="joinab_18_" fill="none" stroke="#000000" stroke-width="10" stroke-linecap="round" stroke-miterlimit="10" d="
		M225.1,363.2c24.5,0,55-109,31-109c-21.5,0-17.5,109,2.8,109c14.4,0,22.6-38,4.7-35.6c-7,0.9-7,12.8,3.3,3.7
		c11.1-9.8,5.1,31.9,28.8,31.9"/>
</g>
<g id="a">
	<path id="joinab_2_" fill="none" stroke="#000000" stroke-width="10" stroke-linecap="round" stroke-miterlimit="10" d="
		M163.3,363.2c16.2,0,7.9-37.2,38.8-26.4c0.2,0.1,0.1,0.5-0.1,0.4c-24.5-10.7-29.7,19.7-22,24.5c9.1,5.8,20-7.4,20.2-13.9
		c0.3-10-8.7,15.3,11.2,15.3"/>
</g>
</svg>
