<?xml version="1.0" encoding="utf-8"?>
<!-- Generator: Adobe Illustrator 18.0.0, SVG Export Plug-In . SVG Version: 6.00 Build 0)  -->
<!DOCTYPE svg PUBLIC "-//W3C//DTD SVG 1.1//EN" "http://www.w3.org/Graphics/SVG/1.1/DTD/svg11.dtd">
<svg version="1.1" xmlns="http://www.w3.org/2000/svg" xmlns:xlink="http://www.w3.org/1999/xlink" x="0px" y="0px"
	 viewBox="0 0 612 792" enable-background="new 0 0 612 792" xml:space="preserve">
<g id="endNom">
	<path fill="none" stroke="#000000" stroke-miterlimit="10" d="M495.3,147.2c29,1,53.7,28.9,35,47c-31,30-164-5.3-235-9.1
		c-39.9-2.2-65.7,13.2-67.5,31.1c-3,30.5,40.5,24.1,43,1.5c2-18-117.5-34-158.8-14.4c-27.8,13.2-40.7,49.9-35.7,70.9"/>
</g>
<g id="somepath">
	<path fill="none" stroke="#000000" stroke-miterlimit="10" d="M333.7,396c16.1,1,29.8,28.9,19.4,47c-17.2,30-91-5.3-130.4-9.1
		c-22.2-2.2-36.5,13.2-37.5,31.1c-1.7,30.5,22.5,24.1,23.9,1.5c1.1-18-65.2-34-88.1-14.4c-15.4,13.2-22.6,49.9-19.8,70.9"/>
</g>
</svg>
