<?xml version="1.0" encoding="utf-8"?>
<!-- Generator: Adobe Illustrator 18.0.0, SVG Export Plug-In . SVG Version: 6.00 Build 0)  -->
<!DOCTYPE svg PUBLIC "-//W3C//DTD SVG 1.1//EN" "http://www.w3.org/Graphics/SVG/1.1/DTD/svg11.dtd">
<svg version="1.1" xmlns="http://www.w3.org/2000/svg" xmlns:xlink="http://www.w3.org/1999/xlink" x="0px" y="0px"
	 viewBox="0 0 1920 2500" enable-background="new 0 0 1920 2500" xml:space="preserve">
<g id="folie">
	<path fill="none" stroke="#000000" stroke-miterlimit="10" d="M830.8,0c0,0,16.4,243.6-246,478.7
		c-231.2,207.1-710.6,389.5-771.1,648c-67.1,287.1,537.1,390,618.1,102c78-277.3-567.1-615.1-825.1-234s336,744.1,609.1,789.1
		s494.6,60.3,483,288c-12,237-575.6,189-573.1,642.1c3,531.1,519.1,372,495,159c-21.9-194.1-507.1-210-624.1,21"/>
</g>
<g id="decembre" display="none">
	<path display="inline" fill="none" stroke="#000000" stroke-miterlimit="10" d="M525,3c0,0-8,188,170,264s350,38,368,226
		S915,751,485,841s-505.9,447.3-340,640c236,274,874-4,768-232c-171.7-369.2-586.2-69.9-444,338c198,568,790.4-53.1,924-180
		c80-76,300-248,527,8"/>
</g>
<g id="wordDecorationEnd">
	<path fill="none" stroke="#231F20" stroke-miterlimit="10" d="M468.3,33.9c29,1,53.7,28.9,35,47c-31,30-164-5.3-235-9.1
		c-39.9-2.2-65.7,13.2-67.5,31.1c-3,30.5,40.5,24.1,43,1.5c2-18-117.5-34-158.8-14.4c-27.8,13.2-40.7,49.9-35.7,70.9"/>
</g>
<g id="nouvelles" display="none">
	<path display="inline" fill="none" stroke="#000000" stroke-miterlimit="10" d="M525,3c292,76,712,996,176,850
		c-455.4-124.1,38.2-627.4,420-390c296,184,78.9,391.4,324,580c208,160,588,72,392-190c-204.7-273.6-596,142-408,462
		s493.6,388,493.6,388"/>
</g>
<g id="accueil2" display="none">
	<path display="inline" fill="none" stroke="#000000" stroke-miterlimit="10" d="M1918,968.9C1530,828,1338,1048,1439,1257
		c79,163.5,430,210,326,541.2c-109,347.1-338.4,358.3-391,351.8c-194.9-24-293.6-325.8-85.4-372c459.4-102,573.4,622,631.4,692"/>
</g>
<g id="accueil1" display="none">
	<path display="inline" fill="none" stroke="#000000" stroke-miterlimit="10" d="M613,3c0,0,358.9,405.4-74,628
		C134.7,838.8,25,525,79,381s424.8-118.2,466,270c42.4,399.1-91.4,590,64,622c22.7,4.7-20.7-120.7-67.7-73.6
		c-91.5,91.5,119.1,221.7,120.3,66.3c0.7-84-109.1-139.5-174-94c-49.1,34.4-42,200.7,103.3,194.7S736.3,1247,719.7,1205
		c-16.7-42-74.7-122-213.3-67.3c-127.2,50.2-79.3,236,28.2,274.6c98.8,35.5,249.1,2.7,227.1-164.6"/>
</g>
</svg>
